<?xml version="1.0" encoding="UTF-8" standalone="no"?>
<svg
   version="1.1"
   width="86"
   height="86"
   viewbox="0 0 96 96"
   id="svg1"
   sodipodi:docname="left-arrow.svg"
   inkscape:version="1.3.2 (091e20e, 2023-11-25, custom)"
   xmlns:inkscape="http://www.inkscape.org/namespaces/inkscape"
   xmlns:sodipodi="http://sodipodi.sourceforge.net/DTD/sodipodi-0.dtd"
   xmlns="http://www.w3.org/2000/svg"
   xmlns:svg="http://www.w3.org/2000/svg">
  <defs
     id="defs1" />
  <sodipodi:namedview
     id="namedview1"
     pagecolor="#ffffff"
     bordercolor="#000000"
     borderopacity="0.25"
     inkscape:showpageshadow="2"
     inkscape:pageopacity="0.0"
     inkscape:pagecheckerboard="0"
     inkscape:deskcolor="#d1d1d1"
     inkscape:zoom="5.855728"
     inkscape:cx="49.865704"
     inkscape:cy="50.975728"
     inkscape:window-width="1920"
     inkscape:window-height="991"
     inkscape:window-x="-9"
     inkscape:window-y="-9"
     inkscape:window-maximized="1"
     inkscape:current-layer="svg1" />
  <g
     transform="matrix(2.0198904,0,0,2.0198904,-5.4268723,67.238685)"
     id="g1">
    <path
       d="m 44.59,-12.96 q 0.72,0.38 0.72,0.96 0,0.58 -0.72,0.96 v 0 H 7.92 l 0.14,0.14 q 4.95,3.8 6.48,9.7 v 0 q 0.29,1.06 0.29,1.2 v 0 q 0,0.53 -1.01,0.53 v 0 q -0.57,0 -0.74,-0.12 -0.17,-0.12 -0.26,-0.6 v 0 q -0.1,-0.34 -0.2,-0.82 v 0 Q 11.76,-4.51 9.34,-7.25 6.91,-9.98 3.5,-11.33 v 0 q -0.72,-0.29 -0.86,-0.53 v 0 q 0,-0.62 0.86,-0.81 v 0 q 3.41,-1.35 5.84,-4.08 2.42,-2.74 3.28,-6.24 v 0 q 0.05,-0.15 0.1,-0.43 0.05,-0.29 0.07,-0.39 0.03,-0.09 0.1,-0.29 0.07,-0.19 0.17,-0.26 0.09,-0.07 0.28,-0.12 0.2,-0.05 0.48,-0.05 v 0 q 1.01,0 1.01,0.53 v 0 q 0,0.14 -0.29,1.2 v 0 q -1.44,5.71 -6.48,9.7 v 0 l -0.14,0.14 z"
       fill="#404040"
       id="path1" />
  </g>
</svg>
